<svg xmlns="http://www.w3.org/2000/svg" viewBox="0 0 152.407 108">
  <path d="M0 0h152.407v108H0z" fill="none"/>
  <g transform="translate(20, 0)">
    <path d="M60.412 25.697h31.5v56.606h-31.5z" fill="#ff5f00"/>
    <path d="M62.412 54c0-11.5 5.3-21.7 13.6-28.3-6.1-4.8-13.7-7.7-22.1-7.7-19.7 0-35.7 16-35.7 36s16 36 35.7 36c8.3 0 16-2.9 22.1-7.7-8.3-6.6-13.6-16.8-13.6-28.3z" fill="#eb001b"/>
    <path d="M134.412 54c0 19.9-16 36-35.7 36-8.3 0-16-2.9-22.1-7.7 8.3-6.6 13.6-16.8 13.6-28.3s-5.3-21.7-13.6-28.3c6.1-4.8 13.7-7.7 22.1-7.7 19.7 0 35.7 16.1 35.7 36z" fill="#f79e1b"/>
  </g>
</svg> 